<svg xmlns="http://www.w3.org/2000/svg" viewBox="0 0 280 56" fill="none" aria-label="Padel centar Hills">
  <g transform="translate(4,2)">
    <path d="M0 48 L14 28 L22 36 L32 22 L48 48 Z" fill="#b3f000" opacity="0.14"></path>
    <ellipse cx="24" cy="22" rx="13" ry="14" fill="#0d1b2a" stroke="#b3f000" stroke-width="2"></ellipse>
    <g fill="#b3f000">
      <circle cx="18" cy="16" r="1"></circle><circle cx="24" cy="16" r="1"></circle><circle cx="30" cy="16" r="1"></circle>
      <circle cx="15" cy="22" r="1"></circle><circle cx="21" cy="22" r="1"></circle><circle cx="27" cy="22" r="1"></circle><circle cx="33" cy="22" r="1"></circle>
      <circle cx="18" cy="28" r="1"></circle><circle cx="24" cy="28" r="1"></circle><circle cx="30" cy="28" r="1"></circle>
    </g>
    <circle cx="35" cy="12" r="2.8" fill="#b3f000"></circle>
    <path d="M32.5 10.8 Q35 13 37.5 10.8" stroke="#0d1b2a" stroke-width="0.7" fill="none"></path>
    <path d="M21 36 L19.5 40 L28.5 40 L27 36 Z" fill="#b3f000"></path>
    <rect x="21.5" y="39" width="5" height="11" rx="1.4" fill="#0d1b2a" stroke="#b3f000" stroke-width="1.5"></rect>
  </g>
  <text x="64" y="26" font-family="Cabinet Grotesk, sans-serif" font-weight="800" font-size="18" fill="#ffffff" letter-spacing="-0.02em">PADEL CENTAR</text>
  <text x="64" y="46" font-family="Cabinet Grotesk, sans-serif" font-weight="800" font-size="18" fill="#b3f000" letter-spacing="0.08em">HILLS</text>
</svg>