<svg xmlns="http://www.w3.org/2000/svg" viewBox="0 0 64 64" fill="none" aria-label="Padel centar Hills">
  
  <path d="M2 52 L20 28 L32 40 L44 22 L62 52 Z" fill="#b3f000" opacity="0.14"></path>

  
  
  <ellipse cx="32" cy="24" rx="17" ry="18" fill="#0d1b2a" stroke="#b3f000" stroke-width="2.4" stroke-linejoin="round"></ellipse>

  
  <g fill="#b3f000">
    <circle cx="24" cy="16" r="1.3"></circle>
    <circle cx="32" cy="16" r="1.3"></circle>
    <circle cx="40" cy="16" r="1.3"></circle>
    <circle cx="20" cy="24" r="1.3"></circle>
    <circle cx="28" cy="24" r="1.3"></circle>
    <circle cx="36" cy="24" r="1.3"></circle>
    <circle cx="44" cy="24" r="1.3"></circle>
    <circle cx="24" cy="32" r="1.3"></circle>
    <circle cx="32" cy="32" r="1.3"></circle>
    <circle cx="40" cy="32" r="1.3"></circle>
  </g>

  
  <circle cx="46" cy="12" r="3.6" fill="#b3f000"></circle>
  <path d="M43 10.5 Q46 13.5 49 10.5" stroke="#0d1b2a" stroke-width="0.8" fill="none"></path>

  
  <path d="M28 42 L26 48 L38 48 L36 42 Z" fill="#b3f000"></path>
  
  <rect x="28.5" y="47" width="7" height="14" rx="1.8" fill="#0d1b2a" stroke="#b3f000" stroke-width="1.8"></rect>
  <line x1="29" y1="51" x2="35" y2="51" stroke="#b3f000" stroke-width="0.9" opacity="0.7"></line>
  <line x1="29" y1="54" x2="35" y2="54" stroke="#b3f000" stroke-width="0.9" opacity="0.7"></line>
  <line x1="29" y1="57" x2="35" y2="57" stroke="#b3f000" stroke-width="0.9" opacity="0.7"></line>
</svg>